<?xml version="1.0" standalone="no"?>
<!DOCTYPE svg PUBLIC "-//W3C//DTD SVG 20010904//EN"
 "http://www.w3.org/TR/2001/REC-SVG-20010904/DTD/svg10.dtd">
<svg version="1.0" xmlns="http://www.w3.org/2000/svg"
 width="2048.000000pt" height="640.000000pt" viewBox="0 0 2048.000000 640.000000"
 preserveAspectRatio="xMidYMid meet">

<g transform="translate(0.000000,640.000000) scale(0.100000,-0.100000)"
fill="#000000" stroke="none">
<path d="M3720 6282 c-107 -36 -205 -119 -255 -217 -15 -30 -31 -55 -35 -55
-4 0 -25 7 -45 16 -193 80 -431 -11 -533 -204 -51 -96 -54 -132 -50 -537 3
-356 4 -372 26 -425 85 -210 315 -326 519 -261 37 12 73 24 79 27 6 2 21 -19
35 -48 13 -29 51 -80 84 -114 174 -176 437 -174 609 5 95 101 126 192 126 377
l0 104 119 0 119 0 4 -207 c4 -271 11 -283 168 -283 l80 0 2 -2184 3 -2184 24
-26 c38 -41 84 -51 136 -32 24 10 52 29 62 44 17 26 18 113 21 2205 l2 2177
80 0 c58 0 88 5 106 16 49 33 54 57 54 274 l0 200 1233 -2 1232 -3 5 -210 c3
-115 9 -217 13 -226 17 -33 63 -49 146 -49 l81 0 0 -2165 c0 -2348 -3 -2213
53 -2250 63 -41 146 -20 179 46 17 32 18 158 18 2202 l0 2167 85 0 c79 0 87 2
117 29 l33 29 5 214 5 213 123 3 122 3 0 -110 c0 -61 5 -134 11 -163 36 -170
181 -308 356 -339 172 -30 369 73 448 235 15 31 28 56 30 56 1 0 24 -9 50 -21
29 -13 79 -23 125 -26 212 -15 404 133 449 345 14 67 15 698 1 773 -16 85 -62
169 -129 233 -127 120 -303 155 -454 88 l-44 -20 -22 49 c-12 26 -43 71 -68
99 -98 109 -204 155 -345 148 -75 -4 -96 -9 -161 -41 -116 -57 -200 -159 -231
-282 -10 -36 -16 -102 -16 -172 l0 -113 -2215 0 -2215 0 0 105 c0 57 -5 128
-11 157 -28 130 -121 248 -243 308 -61 30 -80 35 -160 37 -68 2 -105 -2 -146
-15z m210 -247 c32 -16 63 -51 84 -92 15 -30 16 -93 14 -636 l-3 -603 -24 -36
c-41 -59 -85 -83 -157 -83 -54 0 -67 4 -101 31 -21 16 -48 50 -60 74 l-23 44
0 576 c0 374 4 588 11 613 13 50 76 112 125 125 43 11 96 6 134 -13z m5303 -8
c23 -13 50 -41 65 -67 l27 -45 0 -590 c0 -324 -3 -602 -7 -617 -19 -65 -105
-127 -177 -128 -56 0 -119 37 -152 88 l-29 46 0 598 c0 480 3 605 14 631 16
40 77 95 114 103 15 3 32 7 37 9 18 7 70 -7 108 -28z m-5927 -236 c53 -24 91
-74 104 -138 17 -78 9 -680 -9 -713 -39 -71 -98 -110 -166 -110 -79 0 -149 45
-174 113 -7 18 -11 156 -11 381 l0 352 29 45 c51 81 142 109 227 70z m6547
-11 c19 -13 45 -39 58 -58 l24 -36 3 -357 c3 -343 2 -360 -18 -398 -31 -61
-81 -94 -150 -99 -75 -6 -130 23 -168 88 l-27 45 -3 332 c-2 215 1 346 8 372
32 119 176 177 273 111z m-1143 -465 l0 -125 -2215 0 -2215 0 0 125 0 125
2215 0 2215 0 0 -125z m-3690 -490 l0 -125 -125 0 -125 0 0 125 0 125 125 0
125 0 0 -125z m3200 0 l0 -125 -125 0 -125 0 0 125 0 125 125 0 125 0 0 -125z"/>
<path d="M16448 5943 c-36 -9 -38 -50 -38 -792 l0 -726 -75 -12 c-301 -48
-558 -293 -631 -601 -24 -99 -22 -267 5 -367 112 -426 550 -681 970 -565 309
86 526 340 571 669 20 146 -14 327 -87 461 -78 145 -202 264 -349 335 -75 37
-207 75 -261 75 l-33 0 0 749 0 750 -22 15 c-12 9 -25 15 -28 15 -3 -1 -13 -3
-22 -6z m167 -1638 c94 -19 237 -92 308 -155 151 -136 228 -309 228 -515 -1
-191 -62 -336 -201 -475 -138 -138 -285 -200 -475 -200 -301 0 -558 187 -652
475 -22 68 -26 98 -27 200 0 158 30 261 114 385 154 227 437 341 705 285z"/>
<path d="M16405 4210 c-214 -24 -405 -179 -479 -389 -24 -70 -33 -226 -16
-305 19 -95 84 -211 159 -285 347 -346 939 -125 978 364 28 357 -283 655 -642
615z m11 -198 c3 -19 15 -39 29 -48 23 -15 27 -15 50 0 22 15 25 23 25 81 l0
65 28 -6 c198 -44 341 -180 382 -365 17 -77 8 -199 -19 -272 -45 -116 -152
-223 -269 -268 -87 -34 -227 -38 -312 -9 -335 112 -440 521 -199 775 56 59
140 108 220 129 l54 13 3 -31 c1 -17 5 -46 8 -64z"/>
<path d="M15016 5774 c-14 -13 -16 -63 -16 -393 l0 -378 -80 -17 c-119 -25
-210 -76 -306 -171 -127 -125 -188 -269 -187 -445 2 -349 278 -623 628 -623
363 0 641 295 623 662 -15 289 -226 530 -511 582 l-67 12 0 383 c0 369 -1 384
-19 394 -27 14 -47 13 -65 -6z m147 -889 c230 -48 400 -245 414 -480 18 -298
-221 -556 -517 -555 -280 1 -501 206 -526 489 -25 286 221 554 516 560 25 0
75 -6 113 -14z"/>
<path d="M14928 4771 c-31 -10 -72 -28 -91 -39 -55 -35 -136 -127 -165 -189
-24 -52 -27 -70 -27 -168 0 -103 2 -114 32 -177 83 -176 276 -273 462 -234
392 83 457 609 97 786 -61 30 -80 35 -160 37 -68 2 -105 -2 -148 -16z m72
-148 c0 -60 18 -93 51 -93 34 0 49 28 49 91 0 71 8 74 98 28 109 -54 167 -152
166 -279 -2 -326 -431 -428 -588 -140 -80 146 -21 336 130 417 86 47 94 45 94
-24z"/>
<path d="M5530 2594 c-220 -59 -328 -307 -228 -520 28 -62 99 -133 160 -163
l48 -23 2 -900 3 -900 32 -28 c60 -54 149 -46 190 16 17 27 18 75 21 911 l3
883 734 0 735 0 2 -884 c3 -882 3 -885 24 -913 12 -15 38 -34 59 -42 32 -13
43 -13 78 0 22 8 50 27 61 42 21 28 21 33 24 922 l2 893 53 30 c192 109 248
360 121 543 -33 48 -78 83 -152 117 l-57 27 -930 2 c-795 2 -938 0 -985 -13z
m1897 -254 c64 -38 67 -152 6 -199 -25 -21 -33 -21 -939 -21 l-914 0 -31 28
c-59 53 -45 174 24 202 12 5 412 9 922 9 875 1 901 0 932 -19z"/>
<path d="M12092 2300 c-183 -48 -323 -183 -384 -370 -18 -57 -21 -96 -26 -304
l-4 -238 -43 -62 c-59 -85 -100 -170 -132 -273 -24 -79 -26 -105 -27 -243 -1
-170 13 -243 73 -375 66 -145 221 -323 328 -376 l48 -24 755 0 755 0 48 24
c119 59 284 260 346 420 108 281 69 602 -104 846 l-42 60 -5 240 c-5 208 -8
249 -26 305 -61 188 -202 323 -388 370 -64 17 -110 20 -273 20 -129 0 -216 -5
-253 -14 -49 -11 -67 -11 -115 0 -39 9 -124 14 -258 13 -164 0 -213 -4 -273
-19z m523 -84 c158 -42 279 -156 326 -307 16 -52 19 -93 19 -298 0 -236 0
-238 24 -272 149 -207 206 -380 193 -584 -15 -211 -102 -394 -260 -541 -104
-98 -87 -95 -562 -92 -472 3 -441 -2 -550 104 -171 167 -254 380 -242 618 9
175 53 302 155 444 l52 73 0 218 c0 120 4 243 10 272 31 167 170 320 330 363
74 20 433 22 505 2z m630 -2 c163 -42 294 -182 330 -351 10 -47 15 -135 15
-287 l0 -218 46 -62 c102 -135 152 -276 161 -452 12 -239 -69 -446 -241 -616
-106 -103 -102 -102 -372 -106 l-230 -3 58 62 c245 257 319 608 199 939 -30
82 -83 177 -133 241 -28 35 -29 38 -26 145 l3 109 35 -3 c55 -5 147 -30 214
-58 33 -14 73 -31 88 -37 20 -8 30 -8 43 3 15 12 16 35 13 179 -3 157 -5 169
-30 217 -34 64 -114 137 -176 159 -31 12 -90 19 -175 22 -121 5 -129 7 -144
29 -8 14 -38 42 -66 64 l-50 40 190 0 c138 0 205 -4 248 -16z m-51 -218 c66
-20 110 -57 140 -118 23 -45 26 -64 26 -151 0 -91 -2 -98 -17 -92 -56 24 -137
47 -198 57 -38 6 -75 12 -81 13 -7 2 -13 41 -16 97 -3 56 -14 116 -26 151
l-20 57 72 0 c40 0 94 -6 120 -14z"/>
<path d="M12161 2090 c-94 -20 -200 -113 -234 -206 -24 -69 -25 -345 -1 -365
12 -10 22 -10 42 -2 15 6 55 23 88 37 114 48 180 60 314 60 141 -1 205 -14
339 -71 119 -51 116 -54 116 148 0 159 -1 166 -28 221 -34 69 -109 139 -175
164 -37 14 -85 18 -232 20 -102 1 -205 -1 -229 -6z m177 -137 c-14 -37 -23
-92 -26 -151 -3 -57 -9 -95 -16 -97 -6 -1 -43 -7 -81 -13 -39 -6 -104 -22
-144 -36 l-73 -25 4 112 c3 107 5 114 35 158 55 79 119 107 245 108 l76 1 -20
-57z m225 46 c21 -6 37 -13 35 -17 -2 -4 -16 -34 -32 -66 -24 -47 -31 -76 -34
-141 -4 -70 -7 -82 -21 -79 -9 2 -37 6 -63 9 l-48 6 0 68 c0 67 19 151 46 204
16 30 49 35 117 16z m151 -119 c14 -24 21 -58 24 -120 l4 -87 -31 -11 c-22 -8
-40 -8 -61 -1 -30 11 -30 12 -30 85 0 71 15 129 42 161 16 19 30 12 52 -27z"/>
<path d="M12386 1534 c-19 -18 -21 -45 -4 -62 39 -39 100 17 63 58 -22 24 -38
25 -59 4z"/>
<path d="M12521 1506 c-25 -30 0 -60 71 -85 220 -80 377 -268 423 -505 16 -85
42 -107 80 -69 21 21 15 81 -20 191 -35 111 -89 195 -185 293 -71 71 -101 94
-180 133 -109 54 -168 67 -189 42z"/>
<path d="M12253 1089 c-120 -20 -233 -82 -289 -158 -121 -167 -9 -358 251
-426 129 -33 340 -9 442 51 142 83 198 212 144 329 -70 152 -315 243 -548 204z
m288 -108 c74 -23 151 -77 174 -121 57 -111 -43 -229 -228 -271 -79 -17 -237
-7 -307 20 -119 45 -189 128 -174 207 14 78 123 155 259 184 63 14 203 4 276
-19z"/>
<path d="M13132 1508 c-27 -27 -6 -68 35 -68 29 0 48 33 33 60 -12 22 -49 27
-68 8z"/>
<path d="M13260 1455 c-21 -25 -6 -48 65 -96 152 -103 259 -258 291 -424 20
-101 55 -134 88 -82 13 19 13 32 1 94 -37 193 -150 365 -311 473 -78 51 -113
61 -134 35z"/>
</g>
</svg>
